<svg width="36" height="36" viewBox="0 0 36 36" fill="none" xmlns="http://www.w3.org/2000/svg">
<mask id="mask0_93_40" style="mask-type:alpha" maskUnits="userSpaceOnUse" x="2" y="2" width="32" height="32">
<rect x="2" y="2" width="32" height="32" fill="#D9D9D9"/>
</mask>
<g mask="url(#mask0_93_40)">
<path d="M18 30.0001L16.0667 28.2667C13.8222 26.2445 11.9667 24.5001 10.5 23.0334C9.03335 21.5667 7.86669 20.2501 7.00002 19.0834C6.13335 17.9167 5.5278 16.8445 5.18335 15.8667C4.83891 14.8889 4.66669 13.8889 4.66669 12.8667C4.66669 10.7778 5.36669 9.03339 6.76669 7.63339C8.16669 6.23339 9.91113 5.53339 12 5.53339C13.1556 5.53339 14.2556 5.77783 15.3 6.26672C16.3445 6.75561 17.2445 7.4445 18 8.33339C18.7556 7.4445 19.6556 6.75561 20.7 6.26672C21.7445 5.77783 22.8445 5.53339 24 5.53339C26.0889 5.53339 27.8334 6.23339 29.2334 7.63339C30.6334 9.03339 31.3334 10.7778 31.3334 12.8667C31.3334 13.8889 31.1611 14.8889 30.8167 15.8667C30.4722 16.8445 29.8667 17.9167 29 19.0834C28.1334 20.2501 26.9667 21.5667 25.5 23.0334C24.0334 24.5001 22.1778 26.2445 19.9334 28.2667L18 30.0001ZM18 26.4001C20.1334 24.4889 21.8889 22.8501 23.2667 21.4834C24.6445 20.1167 25.7334 18.9278 26.5334 17.9167C27.3334 16.9056 27.8889 16.0056 28.2 15.2167C28.5111 14.4278 28.6667 13.6445 28.6667 12.8667C28.6667 11.5334 28.2222 10.4223 27.3334 9.53339C26.4445 8.6445 25.3334 8.20005 24 8.20005C22.9556 8.20005 21.9889 8.4945 21.1 9.08339C20.2111 9.67228 19.6 10.4223 19.2667 11.3334H16.7334C16.4 10.4223 15.7889 9.67228 14.9 9.08339C14.0111 8.4945 13.0445 8.20005 12 8.20005C10.6667 8.20005 9.55558 8.6445 8.66669 9.53339C7.7778 10.4223 7.33335 11.5334 7.33335 12.8667C7.33335 13.6445 7.48891 14.4278 7.80002 15.2167C8.11113 16.0056 8.66669 16.9056 9.46669 17.9167C10.2667 18.9278 11.3556 20.1167 12.7334 21.4834C14.1111 22.8501 15.8667 24.4889 18 26.4001Z" fill="#C2C2C2"/>
</g>
</svg>
