<svg width="36" height="36" viewBox="0 0 36 36" fill="none" xmlns="http://www.w3.org/2000/svg">
    <mask id="mask0_93_40" style="mask-type:alpha" maskUnits="userSpaceOnUse" x="2" y="2" width="32"
        height="32">
        <rect x="2" y="2" width="32" height="32" fill="#D9D9D9" />
    </mask>
    <g mask="url(#mask0_93_40)">
        <path
            d="M18 30.0001L16.0667 28.2667C13.8222 26.2445 11.9667 24.5001 10.5 23.0334C9.03335 21.5667 7.86669 20.2501 7.00002 19.0834C6.13335 17.9167 5.5278 16.8445 5.18335 15.8667C4.83891 14.8889 4.66669 13.8889 4.66669 12.8667C4.66669 10.7778 5.36669 9.03339 6.76669 7.63339C8.16669 6.23339 9.91113 5.53339 12 5.53339C13.1556 5.53339 14.2556 5.77783 15.3 6.26672C16.3445 6.75561 17.2445 7.4445 18 8.33339C18.7556 7.4445 19.6556 6.75561 20.7 6.26672C21.7445 5.77783 22.8445 5.53339 24 5.53339C26.0889 5.53339 27.8334 6.23339 29.2334 7.63339C30.6334 9.03339 31.3334 10.7778 31.3334 12.8667C31.3334 13.8889 31.1611 14.8889 30.8167 15.8667C30.4722 16.8445 29.8667 17.9167 29 19.0834C28.1334 20.2501 26.9667 21.5667 25.5 23.0334C24.0334 24.5001 22.1778 26.2445 19.9334 28.2667L18"
            fill="#C2C2C2" />
    </g>
</svg>