<svg width="36" height="36" viewBox="0 0 36 36" fill="none" xmlns="http://www.w3.org/2000/svg">
<mask id="mask0_91_20" style="mask-type:alpha" maskUnits="userSpaceOnUse" x="2" y="2" width="32" height="32">
<rect x="2" y="2" width="32" height="32" fill="#D9D9D9"/>
</mask>
<g mask="url(#mask0_91_20)">
<path d="M28.9778 31L19.8778 21.9C19.1556 22.4778 18.325 22.9352 17.3861 23.2722C16.4472 23.6093 15.4481 23.7778 14.3889 23.7778C11.7648 23.7778 9.54398 22.869 7.72639 21.0514C5.9088 19.2338 5 17.013 5 14.3889C5 11.7648 5.9088 9.54398 7.72639 7.72639C9.54398 5.9088 11.7648 5 14.3889 5C17.013 5 19.2338 5.9088 21.0514 7.72639C22.869 9.54398 23.7778 11.7648 23.7778 14.3889C23.7778 15.4481 23.6093 16.4472 23.2722 17.3861C22.9352 18.325 22.4778 19.1556 21.9 19.8778L31 28.9778L28.9778 31ZM14.3889 20.8889C16.1944 20.8889 17.7292 20.2569 18.9931 18.9931C20.2569 17.7292 20.8889 16.1944 20.8889 14.3889C20.8889 12.5833 20.2569 11.0486 18.9931 9.78472C17.7292 8.52083 16.1944 7.88889 14.3889 7.88889C12.5833 7.88889 11.0486 8.52083 9.78472 9.78472C8.52083 11.0486 7.88889 12.5833 7.88889 14.3889C7.88889 16.1944 8.52083 17.7292 9.78472 18.9931C11.0486 20.2569 12.5833 20.8889 14.3889 20.8889Z" fill="#C2C2C2"/>
</g>
</svg>
