<svg width="36" height="36" viewBox="0 0 36 36" fill="none" xmlns="http://www.w3.org/2000/svg">
<mask id="mask0_93_30" style="mask-type:alpha" maskUnits="userSpaceOnUse" x="2" y="2" width="32" height="32">
<rect x="2" y="2" width="32" height="32" fill="#D9D9D9"/>
</mask>
<g mask="url(#mask0_93_30)">
<path d="M14.3334 31.3334L13.8 27.0667C13.5111 26.9556 13.2389 26.8222 12.9834 26.6667C12.7278 26.5111 12.4778 26.3445 12.2334 26.1667L8.2667 27.8334L4.60004 21.5L8.03337 18.9C8.01115 18.7445 8.00004 18.5945 8.00004 18.45V17.55C8.00004 17.4056 8.01115 17.2556 8.03337 17.1L4.60004 14.5L8.2667 8.16669L12.2334 9.83335C12.4778 9.65558 12.7334 9.48891 13 9.33335C13.2667 9.1778 13.5334 9.04446 13.8 8.93335L14.3334 4.66669H21.6667L22.2 8.93335C22.4889 9.04446 22.7611 9.1778 23.0167 9.33335C23.2723 9.48891 23.5223 9.65558 23.7667 9.83335L27.7334 8.16669L31.4 14.5L27.9667 17.1C27.9889 17.2556 28 17.4056 28 17.55V18.45C28 18.5945 27.9778 18.7445 27.9334 18.9L31.3667 21.5L27.7 27.8334L23.7667 26.1667C23.5223 26.3445 23.2667 26.5111 23 26.6667C22.7334 26.8222 22.4667 26.9556 22.2 27.0667L21.6667 31.3334H14.3334ZM18.0667 22.6667C19.3556 22.6667 20.4556 22.2111 21.3667 21.3C22.2778 20.3889 22.7334 19.2889 22.7334 18C22.7334 16.7111 22.2778 15.6111 21.3667 14.7C20.4556 13.7889 19.3556 13.3334 18.0667 13.3334C16.7556 13.3334 15.65 13.7889 14.75 14.7C13.85 15.6111 13.4 16.7111 13.4 18C13.4 19.2889 13.85 20.3889 14.75 21.3C15.65 22.2111 16.7556 22.6667 18.0667 22.6667ZM18.0667 20C17.5111 20 17.0389 19.8056 16.65 19.4167C16.2611 19.0278 16.0667 18.5556 16.0667 18C16.0667 17.4445 16.2611 16.9722 16.65 16.5834C17.0389 16.1945 17.5111 16 18.0667 16C18.6223 16 19.0945 16.1945 19.4834 16.5834C19.8723 16.9722 20.0667 17.4445 20.0667 18C20.0667 18.5556 19.8723 19.0278 19.4834 19.4167C19.0945 19.8056 18.6223 20 18.0667 20ZM16.6667 28.6667H19.3L19.7667 25.1334C20.4556 24.9556 21.0945 24.6945 21.6834 24.35C22.2723 24.0056 22.8111 23.5889 23.3 23.1L26.6 24.4667L27.9 22.2L25.0334 20.0334C25.1445 19.7222 25.2223 19.3945 25.2667 19.05C25.3111 18.7056 25.3334 18.3556 25.3334 18C25.3334 17.6445 25.3111 17.2945 25.2667 16.95C25.2223 16.6056 25.1445 16.2778 25.0334 15.9667L27.9 13.8L26.6 11.5334L23.3 12.9334C22.8111 12.4222 22.2723 11.9945 21.6834 11.65C21.0945 11.3056 20.4556 11.0445 19.7667 10.8667L19.3334 7.33335H16.7L16.2334 10.8667C15.5445 11.0445 14.9056 11.3056 14.3167 11.65C13.7278 11.9945 13.1889 12.4111 12.7 12.9L9.40004 11.5334L8.10004 13.8L10.9667 15.9334C10.8556 16.2667 10.7778 16.6 10.7334 16.9334C10.6889 17.2667 10.6667 17.6222 10.6667 18C10.6667 18.3556 10.6889 18.7 10.7334 19.0334C10.7778 19.3667 10.8556 19.7 10.9667 20.0334L8.10004 22.2L9.40004 24.4667L12.7 23.0667C13.1889 23.5778 13.7278 24.0056 14.3167 24.35C14.9056 24.6945 15.5445 24.9556 16.2334 25.1334L16.6667 28.6667Z" fill="#C2C2C2"/>
</g>
</svg>
