<svg width="36" height="36" viewBox="0 0 36 36" fill="none" xmlns="http://www.w3.org/2000/svg">
<g clip-path="url(#clip0_88_19)">
<path d="M33 7.95936C31.8963 8.46141 30.7099 8.80057 29.4651 8.95315C30.7357 8.17208 31.7118 6.93528 32.1712 5.46144C30.9819 6.18482 29.6647 6.70994 28.2627 6.99295C27.1401 5.7663 25.5405 5 23.7702 5C20.3712 5 17.6152 7.8257 17.6152 11.3111C17.6152 11.8058 17.6697 12.2875 17.7747 12.7494C12.6594 12.4862 8.12426 9.97354 5.08855 6.15513C4.55875 7.08724 4.25515 8.17132 4.25515 9.32799C4.25515 11.5177 5.34175 13.4494 6.99325 14.5812C5.98435 14.5484 5.0353 14.2645 4.2055 13.7918C4.2048 13.8181 4.2048 13.8446 4.2048 13.8712C4.2048 16.929 6.32641 19.4796 9.14206 20.0598C8.62561 20.2041 8.08186 20.2812 7.52056 20.2812C7.12396 20.2812 6.73846 20.2415 6.36256 20.168C7.14586 22.6753 9.41881 24.5 12.1122 24.5507C10.0058 26.2436 7.35196 27.2526 4.4682 27.2526C3.9714 27.2526 3.4815 27.2226 3 27.1643C5.72385 28.9552 8.95906 30 12.4349 30C23.7558 30 29.9468 20.3831 29.9468 12.0428C29.9468 11.7692 29.9408 11.4971 29.9289 11.2262C31.1313 10.3365 32.1748 9.22509 33 7.95936Z" fill="#2AA9E0"/>
</g>
<defs>
<clipPath id="clip0_88_19">
<rect width="30" height="25" fill="white" transform="translate(3 5)"/>
</clipPath>
</defs>
</svg>
